<?xml version="1.0" encoding="UTF-8" standalone="no"?>
<svg
   xmlns:dc="http://purl.org/dc/elements/1.1/"
   xmlns:cc="http://creativecommons.org/ns#"
   xmlns:rdf="http://www.w3.org/1999/02/22-rdf-syntax-ns#"
   xmlns:svg="http://www.w3.org/2000/svg"
   xmlns="http://www.w3.org/2000/svg"
   xmlns:sodipodi="http://sodipodi.sourceforge.net/DTD/sodipodi-0.dtd"
   xmlns:inkscape="http://www.inkscape.org/namespaces/inkscape"
   width="791.09003"
   height="320.35999"
   id="svg2"
   version="1.1"
   style="background-color: rgba(0,0,0,0);"
   inkscape:version="0.48.5 r10040"
   sodipodi:docname="logo.svg">
  <metadata
     id="metadata3057">
    <rdf:RDF>
      <cc:Work
         rdf:about="">
        <dc:format>image/svg+xml</dc:format>
        <dc:type
           rdf:resource="http://purl.org/dc/dcmitype/StillImage" />
      </cc:Work>
    </rdf:RDF>
  </metadata>
  <defs
     id="defs3055" />
  <sodipodi:namedview
     pagecolor="#ffffff"
     bordercolor="#666666"
     borderopacity="0"
     objecttolerance="10"
     gridtolerance="10"
     guidetolerance="10"
     inkscape:pageopacity="0"
     inkscape:pageshadow="2"
     inkscape:window-width="1600"
     inkscape:window-height="838"
     id="namedview3053"
     showgrid="false"
     inkscape:showpageshadow="false"
     showborder="false"
     inkscape:zoom="1.8202732"
     inkscape:cx="395.54501"
     inkscape:cy="160.17999"
     inkscape:window-x="-8"
     inkscape:window-y="-8"
     inkscape:window-maximized="1"
     inkscape:current-layer="svg2" />
  <g
     id="layer1"
     transform="translate(0,-732.00094)">
    <g
       transform="matrix(1.25,0,0,1.25,-284.375,187.18361)"
       id="g3577">
      <path
         style="fill:#ffffff"
         d="m 706.03291,501.5892 c 13.18,-8.62 29.18,-12.87 44.9,-11.78 17.97,1.14 35.31,9.29 47.83,22.2 -3.62,3.64 -7.23,7.27 -10.86,10.89 -8.81,-9 -20.43,-15.33 -32.92,-17.19 -18.33,-3.22 -37.74,3.78 -50.62,17.03 -9.98,10.54 -16.34,24.81 -16.16,39.44 -0.47,15.23 5.84,30.44 16.58,41.17 10.61,11.01 25.79,17.51 41.08,17.47 12.53,0.14 25,-4.19 34.97,-11.74 2.81,-2.09 5.22,-4.65 8.02,-6.77 4.11,3.03 7.53,6.87 11.07,10.53 -10.13,10.3 -22.93,18.16 -37.1,21.36 -17.32,4.01 -36.15,1.7 -51.73,-6.97 -21,-11.16 -35.84,-33.25 -37.9,-56.97 -0.14,-7.67 -0.6,-15.49 1.25,-23.01 4.07,-18.53 15.56,-35.43 31.59,-45.66 z"
         id="path3289" />
      <path
         style="fill:#ffffff"
         d="m 482.15291,527.1492 c 2.87,-1.16 5.77,-2.29 8.8,-3 1.74,4.62 1.96,9.59 1.34,14.45 5.24,-6.92 12.42,-13.62 21.56,-14.1 3.75,-0.02 7.92,-0.62 11.28,1.46 2.62,1.49 4.45,4.34 4.51,7.38 0.59,8.16 -2.36,15.97 -3.65,23.92 -2.59,11.62 -4.7,23.35 -7.54,34.91 -3.33,0.14 -6.66,0.09 -9.97,-0.28 3.56,-16.59 7.1,-33.18 10.61,-49.78 0.82,-3.17 0.16,-7.64 -3.67,-8.33 -7.16,-1.27 -14.15,3.09 -18.38,8.61 -4.68,6.08 -7.75,13.31 -9.19,20.82 -1.88,9.6 -4.13,19.13 -5.88,28.76 -3.35,0.35 -6.73,0.36 -10.07,-0.07 3.05,-15.95 6.74,-31.78 10.06,-47.68 1.18,-5.63 0.54,-11.39 0.19,-17.07 z"
         id="path3291" />
      <path
         style="fill:#913D08"
         d="m 341.78291,527.1092 c -76.91236,110.46301 -38.45618,55.2315 0,0 z"
         id="path3295" />
      <path
         style="fill:#ffffff"
         d="m 358.28291,527.1392 c 3.39,-0.71 6.79,-1.45 10.24,-1.87 1.96,17.39 3.68,34.81 5.07,52.26 9.73,-17.06 18.19,-34.82 27.84,-51.91 3.3,-0.52 6.53,0.79 9.71,1.5 -1.27,3.36 -3.14,6.45 -4.95,9.54 -10.71,18.89 -21.59,37.68 -32.36,56.54 -2.7,-0.01 -5.4,-0.07 -8.09,-0.29 -1.77,-21.99 -5.68,-43.79 -7.46,-65.77 z"
         id="path3297" />
      <path
         style="fill:#ffffff"
         d="m 547.39291,534.5592 c -0.3,-3.22 -0.44,-9.53 4.45,-8.63 12.9,0.03 25.8,-0.05 38.7,0.06 -0.3,3.18 -0.46,6.7 -2.76,9.17 -12.79,14.88 -25.63,29.71 -38.4,44.61 -1.02,1.22 -1.96,2.5 -2.89,3.79 11.51,0.23 23.04,-0.27 34.54,0.29 -1.34,2.97 -3.03,5.76 -4.9,8.43 -15,-0.2 -30.02,0.32 -45.02,-0.28 0.55,-2.96 0.63,-6.32 2.82,-8.63 14.25,-16.14 28.47,-32.3 42.68,-48.47 -9.74,-0.31 -19.51,0.37 -29.22,-0.34 z"
         id="path3301" />
      <path
         style="fill:#ffffff"
         d="m 717.73291,536.9492 c 1.4,-2.21 2.87,-4.38 4.33,-6.56 6.39,10.73 12.72,21.5 19.19,32.19 -6.28,10.89 -12.8,21.65 -19.2,32.48 -1.46,-1.74 -2.91,-3.46 -4.34,-5.2 4.66,-8.64 9.55,-17.16 14.12,-25.84 0.98,-1.36 -0.15,-2.8 -0.76,-4.02 -4.45,-7.68 -8.92,-15.35 -13.34,-23.05 z"
         id="path3303" />
      <path
         style="fill:#ffffff"
         d="m 737.06291,536.9592 c 1.39,-2.23 2.84,-4.42 4.33,-6.59 6.38,10.85 12.92,21.6 19.21,32.49 -6.55,10.64 -12.76,21.5 -19.22,32.2 -1.45,-1.73 -2.89,-3.44 -4.34,-5.14 4.23,-7.91 8.61,-15.73 12.94,-23.57 0.74,-1.6 2.23,-3.5 0.96,-5.23 -4.43,-8.16 -9.33,-16.07 -13.88,-24.16 z"
         id="path3305" />
      <path
         style="fill:#ffffff"
         d="m 756.07291,536.9992 c 0.98,-2.4 2.66,-4.41 4.05,-6.56 6.6,10.57 12.6,21.5 19.25,32.04 -6.24,10.96 -12.77,21.77 -19.24,32.61 -1.4,-1.7 -2.91,-3.3 -4.06,-5.16 4.05,-8.9 9.49,-17.14 13.87,-25.89 0.99,-1.38 -0.1,-2.83 -0.73,-4.05 -4.31,-7.7 -9.17,-15.11 -13.14,-22.99 z"
         id="path3307" />
    </g>
    <path
       style="fill:#ffffff"
       d="m 161.93192,966.79148 c 0.0136,-0.0354 2.15957,-4.71739 4.7689,-10.40453 l 4.74423,-10.34024 0.24392,0.0131 0.24391,0.0131 4.7012,10.37946 c 2.58566,5.70871 4.7016,10.38449 4.70209,10.39062 4.9e-4,0.006 -0.47623,0.0107 -1.05938,0.0102 l -1.06027,-9.5e-4 -1.58482,-3.43521 -1.58482,-3.43522 -4.39335,0.01 -4.39335,0.01 -1.57537,3.41518 -1.57537,3.41517 -1.10109,0.012 c -0.94332,0.0102 -1.09756,0.003 -1.07643,-0.0523 l 0,0 z m 13.19189,-8.83846 c -0.0369,-0.15823 -3.4116,-7.52312 -3.443,-7.51399 -0.0255,0.007 -3.28606,7.01418 -3.49941,7.52006 -0.0187,0.0444 0.69171,0.0558 3.46665,0.0558 2.95182,0 3.48797,-0.01 3.47576,-0.0619 l 0,0 z"
       id="path3138" />
    <path
       style="fill:#ffffff"
       d="m 202.18527,967.34118 c -1.53649,-0.0667 -2.91288,-0.37123 -4.2271,-0.93514 -3.21463,-1.37935 -5.68948,-4.55319 -6.28206,-8.05633 -0.17964,-1.062 -0.20032,-2.45432 -0.0517,-3.48214 0.35538,-2.45792 1.46974,-4.66416 3.20335,-6.34211 1.63327,-1.58082 3.65913,-2.55583 6.04056,-2.9072 0.75946,-0.11205 2.72426,-0.11191 3.48214,2.4e-4 2.01926,0.29883 3.87326,1.03998 5.46875,2.18617 0.56735,0.40758 1.20734,0.93225 1.63647,1.34159 l 0.38236,0.36472 -0.75138,0.74397 -0.75138,0.74397 -0.40312,-0.36888 c -0.94847,-0.86792 -1.84881,-1.49459 -2.85849,-1.98961 -2.4758,-1.21384 -4.86795,-1.42822 -7.23723,-0.64859 -2.65469,0.87355 -4.66873,2.75128 -5.65705,5.27417 -0.38529,0.98355 -0.56596,1.98337 -0.56472,3.12514 0.002,1.39985 0.25665,2.54547 0.84378,3.78892 0.88828,1.88121 2.31028,3.32148 4.20805,4.26211 2.52197,1.25001 5.76573,1.31263 8.07705,0.15592 2.06098,-1.03143 3.43148,-2.74845 3.94201,-4.93872 0.0592,-0.2538 0.11819,-0.53679 0.13119,-0.62887 l 0.0236,-0.16741 -3.2338,0 -3.2338,0 0,-0.98214 0,-0.98214 4.35268,0 c 3.48365,0 4.35268,0.0113 4.35268,0.0566 0,0.32917 -0.1118,1.60621 -0.17995,2.05554 -0.40894,2.69615 -1.6611,4.90656 -3.63702,6.42037 -1.4464,1.10813 -3.461,1.81184 -5.4241,1.89468 -0.28237,0.0119 -0.61384,0.027 -0.73661,0.0335 -0.12277,0.007 -0.5346,-0.002 -0.91518,-0.0183 l 0,0 z"
       id="path3140" />
    <path
       style="fill:#ffffff"
       d="m 217.00826,956.4328 0,-10.40179 0.98214,0 0.98215,0 0,9.41965 0,9.41964 3.90625,0 3.90625,0 0,0.98214 0,0.98214 -4.8884,0 -4.88839,0 0,-10.40178 z"
       id="path3142" />
    <path
       style="fill:#ffffff"
       d="m 238.97255,967.34104 c -1.75392,-0.16808 -3.11784,-0.58088 -4.40107,-1.332 -2.65209,-1.55236 -4.59172,-4.22522 -5.17037,-7.12491 -0.17419,-0.87287 -0.22142,-1.37923 -0.22034,-2.36205 0.002,-1.65018 0.27493,-3.03164 0.88919,-4.49779 1.18138,-2.81978 3.4906,-5.00544 6.30391,-5.9666 1.12403,-0.38402 2.09473,-0.53707 3.37993,-0.53293 2.4626,0.008 4.53926,0.68227 6.39377,2.07615 1.29506,0.97339 2.48407,2.41553 3.208,3.89097 1.54725,3.15345 1.44216,7.39362 -0.25708,10.3722 -0.54006,0.94667 -1.06735,1.63098 -1.88713,2.44915 -1.57584,1.57271 -3.29442,2.49505 -5.35935,2.8763 -0.84375,0.15578 -2.12914,0.22341 -2.87946,0.15151 l 0,0 z m 1.36499,-1.97927 c 1.19929,-0.0819 2.22732,-0.3556 3.25554,-0.86671 0.96683,-0.4806 1.61155,-0.9499 2.34867,-1.70962 2.02288,-2.08492 2.86081,-5.14649 2.26894,-8.29014 -0.43861,-2.32966 -1.8752,-4.40075 -3.94124,-5.68199 -2.4804,-1.5382 -5.41953,-1.7251 -7.9978,-0.50858 -2.7208,1.28378 -4.55839,3.83394 -4.95108,6.871 -0.0821,0.63468 -0.095,1.98248 -0.0245,2.55288 0.20488,1.65744 0.82289,3.14905 1.83069,4.41847 0.32978,0.41539 0.98073,1.06498 1.4292,1.42622 1.38663,1.11691 2.8641,1.67512 4.77371,1.8036 0.11049,0.007 0.24107,0.0167 0.29018,0.0206 0.0491,0.004 0.37206,-0.0122 0.71767,-0.0358 l 0,0 z"
       id="path3144" />
    <path
       style="fill:#ffffff"
       d="m 254.59755,956.42891 0,-10.40568 2.66741,0.0201 c 2.80456,0.0212 3.11111,0.0403 3.99137,0.24937 1.38466,0.32886 2.40776,1.05312 3.06723,2.17133 0.28819,0.48867 0.43701,0.83833 0.57491,1.35079 0.10613,0.39442 0.11732,0.51391 0.12011,1.28314 0.003,0.7558 -0.008,0.89198 -0.10279,1.25 -0.13911,0.52795 -0.3845,1.09083 -0.65385,1.49979 -0.29589,0.44925 -0.99034,1.12525 -1.44028,1.40199 -0.1996,0.12277 -0.36361,0.23326 -0.36446,0.24554 -8.5e-4,0.0123 0.15393,0.08 0.34395,0.15048 2.1179,0.78563 3.33547,2.10201 3.79027,4.09784 0.10921,0.47929 0.1095,1.80106 5e-4,2.31418 -0.25478,1.1994 -0.73188,2.08303 -1.59259,2.94963 -0.99815,1.00498 -2.16125,1.55977 -3.69025,1.7602 -0.41166,0.054 -1.11226,0.067 -3.61114,0.067 l -3.10039,0 0,-10.40567 z m 6.17575,8.33055 c 1.01211,-0.11977 1.57898,-0.30403 2.19378,-0.71311 1.17055,-0.77886 1.81806,-2.2139 1.63343,-3.62009 -0.199,-1.51553 -1.23643,-2.69604 -2.83779,-3.22915 -0.78611,-0.2617 -1.55685,-0.34152 -3.76116,-0.38949 l -1.43973,-0.0313 0,4.05423 0,4.05423 1.8192,-0.0287 c 1.16514,-0.0184 2.02523,-0.0531 2.39227,-0.0965 l 0,0 z m -1.59986,-10.06947 c 1.41222,-0.13316 2.19209,-0.45785 2.89536,-1.20542 0.23781,-0.25279 0.38366,-0.46106 0.53529,-0.76435 0.30592,-0.6119 0.36385,-0.87501 0.3621,-1.64456 -10e-4,-0.58908 -0.0125,-0.67902 -0.12434,-0.99956 -0.15323,-0.43927 -0.29353,-0.68072 -0.57362,-0.98719 -0.40198,-0.43982 -0.98781,-0.73863 -1.80015,-0.91818 -0.4067,-0.0899 -0.60038,-0.10045 -2.17634,-0.11873 l -1.72991,-0.0201 0,3.35222 0,3.35222 1.06027,-4e-5 c 0.58315,-2e-5 1.28125,-0.0209 1.55134,-0.0463 z"
       id="path3146" />
    <path
       style="fill:#ffffff"
       d="m 269.01047,966.75646 c 0.0348,-0.0663 4.3551,-9.47616 8.36766,-18.22545 l 1.1363,-2.47768 0.23989,0 0.23988,0 4.699,10.37647 c 2.58444,5.70706 4.69899,10.3832 4.69899,10.39143 0,0.008 -0.47645,0.01 -1.05877,0.003 l -1.05877,-0.012 -1.57241,-3.39285 -1.57241,-3.39286 -4.40398,0 -4.40398,0 -1.56972,3.40402 -1.56971,3.40402 -1.10652,0 c -1.03971,-10e-6 -1.10404,-0.005 -1.06545,-0.0781 z m 12.99666,-9.24107 c -0.1206,-0.26395 -0.89784,-1.97061 -1.7272,-3.79258 -0.82937,-1.82197 -1.52266,-3.29795 -1.54064,-3.27997 -0.0348,0.0347 -3.4104,7.3416 -3.45303,7.47433 -0.0238,0.074 0.16095,0.0781 3.45753,0.0781 l 3.48261,0 -0.21927,-0.47991 z"
       id="path3148" />
    <path
       style="fill:#ffffff"
       d="m 291.60647,956.4328 0,-10.40179 1.00447,0 1.00446,0 0,9.41965 0,9.41964 3.88393,0 3.88393,0 0,0.98214 0,0.98214 -4.88839,0 -4.8884,0 0,-10.40178 z"
       id="path3150" />
    <path
       style="fill:#ffffff"
       d="m 312.54397,956.4328 0,-10.40179 2.29263,0 c 1.26094,0 2.55168,0.0205 2.8683,0.0456 1.86616,0.14776 2.98365,0.59008 3.90494,1.54563 0.59217,0.61419 0.99821,1.33456 1.2294,2.18111 0.11264,0.41245 0.12198,0.511 0.12278,1.29465 8e-4,0.78162 -0.009,0.88326 -0.11913,1.29464 -0.13328,0.49582 -0.41868,1.12318 -0.70516,1.55001 -0.26941,0.40141 -0.89484,0.9991 -1.34443,1.28481 -0.21251,0.13505 -0.38769,0.25606 -0.38928,0.26892 -0.002,0.0129 0.15279,0.0803 0.34308,0.14996 0.48677,0.17809 1.22752,0.55236 1.62778,0.82245 1.59538,1.07655 2.46204,3.06122 2.22518,5.09568 -0.15721,1.35026 -0.70421,2.4897 -1.65298,3.44324 -1.02414,1.02928 -2.22392,1.58588 -3.83943,1.78117 -0.22443,0.0271 -1.63621,0.0457 -3.47099,0.0457 l -3.09269,0 0,-10.40178 z m 6.16072,8.32826 c 1.36295,-0.16175 2.24732,-0.56387 2.90196,-1.31953 1.69174,-1.95281 1.10137,-4.79809 -1.24024,-5.97727 -0.93914,-0.47293 -1.79042,-0.59945 -4.41842,-0.65664 l -1.43973,-0.0313 0,4.05423 0,4.05423 1.8192,-0.0287 c 1.14399,-0.0181 2.02631,-0.0533 2.37723,-0.0949 z m -1.02679,-10.13384 c 0.56118,-0.089 1.24083,-0.31176 1.58747,-0.52034 0.55181,-0.33204 1.09067,-0.93683 1.35593,-1.52184 0.19047,-0.42009 0.27016,-0.76124 0.30062,-1.28697 0.091,-1.57038 -0.76809,-2.71611 -2.30652,-3.07622 -0.6471,-0.15147 -1.08579,-0.18191 -2.62159,-0.18191 l -1.48555,0 0,3.35337 0,3.35337 1.35045,-0.0226 c 0.943,-0.0158 1.49187,-0.045 1.81919,-0.0969 z"
       id="path3152" />
    <path
       style="fill:#ffffff"
       d="m 328.66005,956.42794 0,-10.40665 3.27009,0.0234 c 3.89601,0.0278 4.78014,0.0887 5.74449,0.39563 0.86129,0.27412 1.58303,0.72268 2.19731,1.36564 0.41299,0.43227 0.65966,0.79009 0.91156,1.3223 0.6954,1.46926 0.66546,3.59854 -0.0713,5.07244 -0.67016,1.34063 -2.02121,2.31717 -3.67131,2.65362 -0.91579,0.18673 -2.69171,0.29205 -4.93216,0.29251 l -1.43974,2.9e-4 0,4.84375 0,4.84375 -1.00446,0 -1.00446,0 0,-10.40664 z m 7.37843,-1.34942 c 0.9185,-0.1525 1.47854,-0.37411 1.97964,-0.78335 0.50451,-0.41204 0.93049,-1.10452 1.1154,-1.81326 0.12238,-0.46906 0.11308,-1.40117 -0.0186,-1.86604 -0.3123,-1.10234 -1.08562,-1.9624 -2.05106,-2.2811 -0.75153,-0.24809 -0.97433,-0.26473 -3.79442,-0.28341 l -2.60045,-0.0172 0,3.55033 0,3.55033 0.41295,0.0168 c 0.22712,0.009 1.33705,0.0129 2.46652,0.008 1.65456,-0.007 2.13838,-0.0227 2.49004,-0.0811 l 0,0 z"
       id="path3154" />
    <path
       style="fill:#ffffff"
       d="m 353.90558,967.30468 c -2.51478,-0.28994 -4.54948,-1.30578 -6.36215,-3.17635 -1.62004,-1.67178 -2.57334,-3.59344 -2.93175,-5.90982 -0.0992,-0.6412 -0.1131,-2.56889 -0.023,-3.19196 0.38397,-2.65518 1.48503,-4.87766 3.27335,-6.60722 2.6768,-2.58884 6.42261,-3.51628 10.17123,-2.51832 2.80069,0.7456 5.30229,2.84003 6.63388,5.55411 0.66733,1.36015 0.99175,2.63619 1.09158,4.2934 0.17225,2.85936 -0.64891,5.51061 -2.36741,7.64354 -0.44942,0.55779 -1.47008,1.55079 -2.00828,1.95386 -1.36842,1.02481 -2.92196,1.67125 -4.59844,1.91343 -0.70009,0.10114 -2.19133,0.12462 -2.87901,0.0453 l 0,0 z m 2.46376,-2.01301 c 2.33407,-0.31442 4.49993,-1.66507 5.82355,-3.63162 0.9037,-1.34268 1.38244,-2.78397 1.51308,-4.55534 0.21875,-2.96582 -0.90719,-5.74093 -3.05932,-7.54035 -2.64676,-2.21298 -6.17411,-2.67258 -9.16034,-1.19355 -2.15533,1.06749 -3.68113,2.81379 -4.4406,5.08233 -0.46305,1.38312 -0.60265,3.11655 -0.37198,4.61881 0.35999,2.34443 1.64904,4.39634 3.67379,5.84795 1.65051,1.1833 3.79478,1.67176 6.02182,1.37177 l 0,0 z"
       id="path3156" />
    <path
       style="fill:#ffffff"
       d="m 386.69576,967.34206 c -1.7335,-0.16161 -2.96504,-0.49246 -4.27076,-1.1473 -0.90943,-0.45609 -1.92562,-1.21117 -2.6043,-1.93511 -1.76671,-1.88452 -2.74729,-4.08581 -2.9936,-6.72032 -0.0695,-0.74319 -0.0335,-2.30636 0.0687,-2.98153 0.34759,-2.29695 1.36085,-4.29406 3.01248,-5.9375 1.72048,-1.71196 3.71304,-2.68038 6.21097,-3.01865 0.75732,-0.10255 2.35995,-0.10255 3.11727,0 2.52664,0.34215 4.67147,1.3946 6.29938,3.09105 0.36852,0.38403 1.00895,1.16844 0.97545,1.19476 -0.009,0.007 -0.35396,0.27874 -0.76642,0.60358 -0.41245,0.32484 -0.76593,0.58425 -0.7855,0.57646 -0.0196,-0.008 -0.18864,-0.19723 -0.37572,-0.42098 -1.97419,-2.36113 -4.9961,-3.47555 -8.20047,-3.02418 -3.27956,0.46196 -6.03387,2.74594 -7.04862,5.84498 -0.32683,0.99814 -0.45138,1.83703 -0.45138,3.04015 0,1.59882 0.25409,2.78196 0.87082,4.05479 0.73908,1.52538 1.94637,2.82919 3.42593,3.69983 2.37992,1.40045 5.70974,1.57159 8.34445,0.42885 0.96971,-0.42058 1.84562,-1.04266 2.77596,-1.97151 0.36448,-0.3639 0.67093,-0.66163 0.681,-0.66163 0.0156,0 1.40442,1.07044 1.50301,1.15842 0.051,0.0455 -0.62503,0.83517 -1.07187,1.25199 -1.62194,1.51295 -3.67715,2.47205 -5.99227,2.79638 -0.45327,0.0635 -2.30853,0.11625 -2.72453,0.0775 l 0,0 z"
       id="path3158" />
    <path
       style="fill:#ffffff"
       d="m 409.5529,967.34104 c -1.05414,-0.10102 -1.7787,-0.24665 -2.61206,-0.52499 -1.47409,-0.49235 -2.77075,-1.3061 -3.95097,-2.47952 -1.83521,-1.82464 -2.84887,-3.87117 -3.17403,-6.4082 -0.0838,-0.65393 -0.0722,-2.24174 0.0215,-2.92407 0.27829,-2.02824 0.98825,-3.76701 2.19651,-5.3795 1.49801,-1.99917 3.74312,-3.41832 6.1798,-3.9063 2.64004,-0.5287 5.5175,-0.0322 7.71478,1.33131 1.58238,0.98191 3.06526,2.59238 3.91298,4.24965 1.41201,2.76047 1.57515,6.36255 0.42176,9.31254 -0.53637,1.37188 -1.34925,2.58584 -2.49269,3.72262 -0.90857,0.90329 -1.66079,1.44916 -2.73401,1.98399 -1.43348,0.71437 -3.00497,1.06342 -4.70229,1.04443 -0.34375,-0.004 -0.69531,-0.0137 -0.78125,-0.022 z m 1.37709,-1.98008 c 2.06646,-0.1411 3.90598,-0.94955 5.38083,-2.36482 1.49173,-1.43148 2.40517,-3.38394 2.62157,-5.60352 0.0638,-0.65479 0.0278,-1.9309 -0.0712,-2.5217 -0.43584,-2.60036 -1.82903,-4.70425 -4.01136,-6.05761 -2.59437,-1.60888 -5.66978,-1.73548 -8.32766,-0.34279 -1.32126,0.69231 -2.35242,1.61516 -3.18113,2.84698 -0.75469,1.12179 -1.20228,2.29495 -1.44065,3.77601 -0.0792,0.49222 -0.11132,1.47163 -0.069,2.10524 0.15871,2.3763 1.06446,4.29561 2.79658,5.92603 1.48984,1.40237 3.16516,2.11938 5.25978,2.2511 0.12277,0.008 0.2634,0.0174 0.3125,0.0214 0.0491,0.004 0.3775,-0.0123 0.72977,-0.0363 l 0,0 z"
       id="path3160" />
    <path
       style="fill:#ffffff"
       d="m 425.64714,956.44396 1.43293,-10.39063 0.16124,-0.0136 c 0.11099,-0.009 0.16588,0.006 0.17615,0.0498 0.0268,0.11379 8.18338,17.03977 8.21145,17.03977 0.015,0 1.85727,-3.84208 4.09391,-8.53795 l 4.06662,-8.53795 0.15149,-0.0134 0.15149,-0.0134 0.18793,1.35272 c 0.10337,0.744 0.75515,5.42583 1.44841,10.40406 l 1.26047,9.05134 -0.96779,0 c -0.96715,0 -0.9678,-4e-5 -0.99045,-0.10044 -0.0125,-0.0553 -0.46163,-3.41015 -0.99814,-7.45533 -0.53652,-4.04519 -0.98553,-7.35417 -0.9978,-7.35329 -0.0123,8.8e-4 -1.62947,3.35547 -3.59375,7.45463 l -3.57143,7.45303 -0.24632,7e-4 -0.24632,7e-4 -0.52059,-1.08259 c -0.28633,-0.59542 -1.90819,-3.95535 -3.60413,-7.46651 -1.69594,-3.51116 -3.09083,-6.40402 -3.09974,-6.42857 -0.009,-0.0246 -0.0277,-0.0343 -0.0416,-0.0216 -0.014,0.0127 -0.45943,3.34749 -0.98988,7.41071 -0.53045,4.06323 -0.97414,7.43288 -0.986,7.48813 -0.0215,0.10034 -0.0225,0.10044 -0.9713,0.10044 l -0.94975,0 1.43294,-10.39062 z"
       id="path3162" />
    <path
       style="fill:#ffffff"
       d="m 451.07076,956.42791 0,-10.40667 3.24777,0.0224 c 3.29888,0.0228 3.97149,0.0516 4.93396,0.21113 1.15268,0.19111 2.1183,0.66368 2.86372,1.4015 1.0564,1.04562 1.54281,2.28037 1.54357,3.91836 7.8e-4,1.65978 -0.47864,2.89335 -1.50995,3.88521 -0.96855,0.93149 -2.07801,1.37917 -3.84693,1.55228 -0.82724,0.081 -2.30431,0.13294 -3.8058,0.13395 l -1.46205,9.8e-4 0,4.84375 0,4.84375 -0.98215,0 -0.98214,0 0,-10.40667 z m 7.38839,-1.35019 c 0.24554,-0.0402 0.58706,-0.11529 0.75893,-0.16677 1.212,-0.36302 2.06685,-1.31296 2.32358,-2.58202 0.11077,-0.54759 0.0727,-1.37072 -0.0858,-1.85595 -0.38776,-1.18709 -1.26562,-2.00544 -2.41638,-2.2526 -0.71254,-0.15303 -1.26928,-0.18044 -3.66544,-0.18044 l -2.33902,0 0,3.54755 0,3.54754 0.45759,0.0165 c 0.25167,0.009 1.37165,0.0127 2.48884,0.008 1.63978,-0.007 2.11728,-0.0227 2.47767,-0.0818 z"
       id="path3164" />
    <path
       style="fill:#ffffff"
       d="m 467.19624,964.21182 c 0.66232,-1.44253 2.03356,-4.43081 3.04718,-6.64063 1.01363,-2.20982 2.22574,-4.85156 2.69358,-5.87053 0.46784,-1.01898 1.24193,-2.70648 1.72019,-3.75 l 0.86958,-1.89733 0.23851,-0.0121 0.23852,-0.0121 4.68744,10.3579 c 2.57809,5.69685 4.69429,10.37844 4.70265,10.40354 0.0101,0.0305 -0.33794,0.0416 -1.04615,0.0337 l -1.06136,-0.012 -1.57199,-3.39285 -1.57198,-3.39286 -4.40275,0 -4.40274,0 -1.5697,3.40402 -1.56969,3.40401 -1.10276,0 -1.10277,0 1.20424,-2.62276 z m 11.98572,-6.33929 c -0.0334,-0.0675 -0.81198,-1.7745 -1.73017,-3.79329 -0.9182,-2.01879 -1.6833,-3.65606 -1.70022,-3.63839 -0.0327,0.0341 -3.47545,7.49611 -3.47545,7.53283 0,0.0119 1.56748,0.0216 3.48329,0.0216 l 3.48329,0 -0.0607,-0.12277 z"
       id="path3166" />
    <path
       style="fill:#ffffff"
       d="m 488.66005,956.4328 0,-10.40179 0.19606,0 0.19607,0 6.10812,7.24331 c 3.35946,3.98381 6.39009,7.57724 6.73473,7.98538 l 0.62662,0.74208 0.0113,-7.98538 0.0113,-7.98539 0.98202,0 0.98202,0 0,10.40412 0,10.40412 -0.22088,-0.0135 -0.22088,-0.0135 -6.14686,-7.25446 c -3.38078,-3.98996 -6.38016,-7.53058 -6.66529,-7.86806 l -0.51841,-0.6136 -0.0113,7.87922 -0.0113,7.87922 -1.02666,0 -1.02666,0 0,-10.40178 z"
       id="path3168" />
    <path
       style="fill:#ffffff"
       d="m 514.46362,961.86646 0,-4.96813 -3.2568,-5.4225 -3.2568,-5.4225 1.1251,-0.012 c 0.9125,-0.01 1.13354,-3.9e-4 1.16975,0.0493 0.0245,0.0337 1.18973,1.96244 2.58928,4.28609 1.39956,2.32366 2.56255,4.21905 2.58443,4.21199 0.0219,-0.007 1.17702,-1.93444 2.56697,-4.28306 l 2.52718,-4.27021 1.15058,-0.002 1.15058,-0.002 -0.0648,0.10045 c -0.0357,0.0552 -1.47252,2.48927 -3.19299,5.40894 l -3.12815,5.3085 0,4.99284 0,4.99284 -0.98214,0 -0.98214,0 0,-4.96812 0,0 z"
       id="path3170" />
    <path
       style="fill:#ffffff"
       d="m 100.06018,196.7365 c -3.175818,-0.41208 -6.095462,-1.52476 -8.296909,-3.16196 -2.693866,-2.00342 -5.216864,-5.69612 -6.5775,-9.62692 -1.977361,-5.7125 -2.370906,-12.21636 -1.299828,-21.48139 1.141651,-9.8755 4.201918,-20.08899 8.863391,-29.58111 4.783029,-9.73966 10.882946,-16.58439 18.248346,-20.47655 6.09333,-3.21994 14.34604,-3.99098 20.34969,-1.90125 3.85347,1.34131 5.99272,2.88334 9.08781,6.55074 0.75625,0.89609 1.40312,1.63042 1.4375,1.63186 0.0344,0.001 0.70937,-1.44346 1.5,-3.21087 0.79062,-1.76741 1.53594,-3.31314 1.65625,-3.43495 0.20116,-0.20368 0.57413,-0.22148 4.63939,-0.22148 4.32842,0 4.42774,0.006 4.76088,0.26762 0.30024,0.23618 0.3343,0.33534 0.28979,0.84375 -0.0277,0.31687 -2.72851,12.95113 -6.0017,28.07613 -4.85919,22.4537 -6.03311,28.06197 -6.39731,30.5625 -1.36523,9.37343 -1.35041,11.70363 0.12291,19.31961 0.24792,1.28156 0.19047,1.71072 -0.26933,2.01199 -0.59895,0.39245 -9.17901,3.9184 -9.53504,3.9184 -0.2003,0 -0.49439,-0.1298 -0.67651,-0.29858 -0.67621,-0.62669 -1.69019,-3.15732 -2.13421,-5.32642 -0.3576,-1.74692 -0.45512,-3.04827 -0.4541,-6.05923 10e-4,-3.18971 0.12827,-4.8265 0.44824,-5.76896 0.17823,-0.52495 0.17839,-0.59774 0.002,-0.77442 -0.10725,-0.10726 -0.21492,-0.17024 -0.23925,-0.13995 -0.0243,0.0303 -0.53916,0.80884 -1.14405,1.73013 -3.93144,5.98782 -8.12003,10.29283 -12.63016,12.98125 -4.42508,2.63771 -8.21852,3.68106 -13.22516,3.63745 -1.18241,-0.0103 -2.31859,-0.0406 -2.52484,-0.0674 l 0,0 z m 10.15421,-11.6562 c 3.6939,-0.75536 6.71658,-2.57656 10.41617,-6.27588 5.53623,-5.53581 10.04965,-13.83743 12.62117,-23.21433 0.47555,-1.73404 5.87095,-26.77448 5.87095,-27.24747 0,-0.30814 -2.74533,-2.77964 -4.15925,-3.74439 -2.18093,-1.48809 -5.29469,-2.89172 -7.5813,-3.41753 -1.60796,-0.36974 -4.71866,-0.4552 -6.39094,-0.17558 -4.9563,0.82875 -8.6679,3.5499 -12.8695,9.43522 -6.40559,8.97252 -10.929329,23.57045 -11.768988,37.97802 -0.227095,3.89668 0.113865,7.47067 0.965234,10.11778 0.477943,1.48603 1.467618,3.38882 2.17594,4.18354 1.235354,1.38603 3.189544,2.31224 5.503804,2.60856 1.27475,0.16322 3.79079,0.0436 5.21671,-0.24794 l 0,0 z"
       id="path3468"
       transform="translate(0,732.00094)" />
    <path
       style="fill:#ffffff"
       d="m 244.51822,196.67574 c -4.1105,-0.77593 -7.56479,-2.89318 -10.04016,-6.15393 -3.7718,-4.96852 -5.48952,-11.74544 -5.22722,-20.62299 0.3717,-12.57987 3.6767,-25.35058 9.65303,-37.29988 6.2762,-12.54886 14.88612,-20.29757 24.97492,-22.4768 2.38398,-0.51495 7.39183,-0.64714 9.8381,-0.25969 5.00939,0.79341 8.69552,2.88108 12.07675,6.83977 0.99308,1.16267 1.87433,2.09104 1.95833,2.06304 0.084,-0.028 0.79835,-1.49475 1.58743,-3.25944 1.08207,-2.41993 1.53751,-3.25537 1.85304,-3.39914 0.56769,-0.25865 7.94129,-0.2554 8.68492,0.004 0.32759,0.1142 0.59656,0.35129 0.65176,0.57452 0.0517,0.20905 -2.60792,12.87612 -5.91026,28.14904 -5.99349,27.71919 -6.66992,31.18114 -7.26288,37.17102 -0.39427,3.98271 -0.15196,7.57374 0.85884,12.72824 l 0.3244,1.65424 -0.37288,0.42557 c -0.43119,0.49213 -8.94265,4.12774 -9.67045,4.13067 -0.2523,10e-4 -0.58132,-0.13737 -0.73114,-0.30751 -0.79103,-0.89832 -1.72426,-3.47911 -2.18644,-6.04645 -0.38637,-2.14616 -0.36346,-8.98113 0.0354,-10.57163 0.20577,-0.8205 0.23147,-1.19034 0.0924,-1.32944 -0.10599,-0.106 -0.22128,-0.15825 -0.2562,-0.11611 -0.0349,0.0421 -0.44447,0.67322 -0.91013,1.40242 -1.39892,2.19065 -4.18274,5.82627 -5.67425,7.41046 -4.53854,4.82057 -9.61359,7.90539 -15.01317,9.12561 -1.79695,0.40608 -7.52017,0.50699 -9.33412,0.16458 l 0,0 z m 11.07373,-11.30899 c 4.08227,-0.71189 7.29826,-2.64728 11.34866,-6.82964 5.2812,-5.45327 9.41987,-13.06053 12.01988,-22.09367 0.32614,-1.1331 1.83568,-7.88911 3.35454,-15.01336 l 2.76156,-12.95318 -1.20006,-1.20932 c -4.10252,-4.1342 -10.22728,-6.62082 -15.44011,-6.26859 -4.23397,0.28608 -7.42259,1.81253 -10.70232,5.12341 -4.75098,4.7961 -8.34496,11.20426 -11.31602,20.17673 -3.40847,10.29343 -5.07039,23.04538 -3.88136,29.78188 0.50293,2.84934 1.65798,5.59945 2.93253,6.98217 1.95765,2.12381 5.94727,3.0317 10.1227,2.30357 l 0,0 z"
       id="path3472"
       transform="translate(0,732.00094)" />
    <path
       style="fill:#ffffff"
       d="m 474.66033,196.88789 c -5.54345,-0.62936 -9.5329,-2.98272 -12.44897,-7.34361 -3.28277,-4.90928 -4.79144,-11.31246 -4.5716,-19.40303 0.33789,-12.43507 3.49461,-24.94048 9.32405,-36.9375 6.24302,-12.84815 15.02007,-20.89379 25.25902,-23.15413 1.31722,-0.29079 1.75462,-0.32218 5.22764,-0.37517 3.16387,-0.0483 4.00038,-0.023 5.0625,0.15276 2.67148,0.44215 5.9883,1.78937 8.0472,3.26861 1.3584,0.97596 2.18589,1.77915 4.03025,3.91187 0.8805,1.01816 1.58459,1.73138 1.64731,1.66866 0.0602,-0.0602 0.69263,-1.4006 1.40529,-2.97857 0.71266,-1.57796 1.36586,-3.01751 1.45156,-3.19899 0.0857,-0.18148 0.29289,-0.39242 0.46041,-0.46875 0.40975,-0.18669 8.35356,-0.19176 8.88738,-0.006 0.71664,0.24982 0.74308,0.59408 0.22723,2.95888 -6.37128,29.20811 -11.61641,53.87146 -11.99623,56.408 -1.30918,8.74307 -1.35857,11.57751 -0.30498,17.5 0.27518,1.54688 0.52952,2.98548 0.56519,3.19689 0.12332,0.73081 -0.19569,0.9217 -4.71075,2.81882 -4.88564,2.05284 -4.99542,2.0966 -5.2769,2.10381 -0.39157,0.01 -1.09228,-0.7562 -1.52209,-1.66439 -1.41153,-2.98257 -1.89832,-6.41764 -1.70303,-12.01763 0.083,-2.38104 0.14399,-3.00385 0.35477,-3.62495 0.23055,-0.67934 0.23627,-0.77011 0.0608,-0.96403 -0.17885,-0.19762 -0.29114,-0.068 -1.46157,1.68746 -2.43814,3.65678 -4.03432,5.64254 -6.47165,8.05119 -2.75752,2.72508 -4.82076,4.24233 -7.85532,5.77661 -2.75775,1.39431 -4.41655,1.95678 -7.0625,2.39476 -1.72997,0.28635 -5.12519,0.40838 -6.625,0.2381 l 0,0 z m 9.3125,-11.56509 c 3.25003,-0.52669 5.90528,-1.89074 9.20947,-4.73107 3.1103,-2.67366 6.3675,-6.76819 8.77061,-11.02526 2.2831,-4.04447 4.52528,-9.66961 5.77479,-14.48772 0.40951,-1.57903 5.74513,-26.36344 5.74513,-26.68658 0,-0.23874 -3.14433,-2.95654 -4.36853,-3.77594 -2.39011,-1.5998 -5.55857,-2.95179 -8.00647,-3.4164 -1.60596,-0.3048 -4.65095,-0.31335 -6.15123,-0.0173 -3.31527,0.65428 -6.17493,2.23444 -8.72377,4.82047 -6.62168,6.7183 -11.77703,18.1344 -14.17713,31.39411 -1.04117,5.75208 -1.38497,9.12632 -1.37488,13.4941 0.007,2.94851 0.0457,3.64199 0.27371,4.875 0.3914,2.11702 0.83008,3.51804 1.59084,5.08072 1.25768,2.58335 3.05342,3.9246 5.99996,4.48138 1.21827,0.2302 4.00027,0.22737 5.4375,-0.006 l 0,0 z"
       id="path3478"
       transform="translate(0,732.00094)" />
  </g>
</svg>
